<?xml version="1.0" encoding="UTF-8"?>
<svg id="Layer_1" data-name="Layer 1" xmlns="http://www.w3.org/2000/svg" width="741.68" height="741.68" viewBox="0 0 741.68 741.68">
  <defs>
    <style>
      .cls-1 {
        fill: #fff;
      }

      .cls-1, .cls-2 {
        stroke-width: 0px;
      }

      .cls-2 {
        fill: #006a3f;
      }
    </style>
  </defs>
  <circle class="cls-2" cx="370.84" cy="370.84" r="370.84"/>
  <path class="cls-1" d="M663.59,26.68c0-1.37-1-2.55-2.35-2.76-10.63-1.71-21.27-3-31.9-3.9-3.31-.27-22.23-.42-28.13-.18-36.39,1.49-70.6,10.47-102.84,27.35-5.3,2.78-10.49,5.67-15.56,8.68-.23.13-13.08,8.26-15.66,10.06-26.89,18.71-48.76,42.35-60.9,75.17-10.49,28.34-19.52,57.25-28.35,86.17-4.66,15.27-4.28,30.63,3.43,45.54,5.76,11.14,5.02,22.13-2.82,32.98-4,5.54-37.57,53.89-48.43,69.7-2.16,3.15-3.69,6.21-4.61,9.18-.09.28-.13.58-.13.87v8.21c1.75,1.75,1.82,7.08,3.16,8.91,1.76,2.38,4.09,4.66,7.02,6.82,4.87,3.59,10.7,6.23,16.48,8.16,15.45,5.15,17.15,8.38,10.95,23.89-3.97,9.93-1.89,18.38,6.21,25.31,2.16,1.85,4.3,3.71,6.45,5.57-1.06.19-2.11.38-3.17.56,0,6.97-2.84,16.17.54,20.5,9.71,12.42,10.07,24.36,6.99,39.1-6.67,31.93,10.49,55.23,42.71,59.89,3.17.46,6.36.78,9.56,1.04,1.61.13,2.99,1.58,2.99,3.18v139.55c0,1.22,84.93,0,84.93,0,1.54,0,.7-111.17.7-111.17v-224.03c0-1.54,1.24-2.78,2.78-2.78h137.16c1.54,0,2.78-1.24,2.78-2.78v-65.8c0-1.54-1.24-2.78-2.78-2.78h-137.16c-1.54,0-2.78-1.24-2.78-2.78v-88.56c0-17.13.71-34.01,2.14-50.67,1.43-16.64,4.99-31.62,10.7-44.96,5.71-13.31,14.74-24.02,27.12-32.11,12.35-8.07,29.48-12.13,51.38-12.13,14.29,0,30.28,2.11,47.95,6.3,1.75.41,3.43-.9,3.43-2.69V26.68Z"/>
</svg>